Genre: Action | Fantasy | Thriller
Language:English 
http://www.imdb.com/title/tt1071875/
Source:ILLUMINATI Thanks!
Encoder:Tony

Format : AVI
Format/Info : Audio Video Interleave
File size : 853 MiB
Duration : 1h 28mn
Overall bit rate : 1 353 Kbps


Video
ID : 0
Format : MPEG-4 Visual
Format profile : Advanced Simple@L5
Format settings, BVOP : 2
Format settings, QPel : No
Format settings, GMC : No warppoints
Format settings, Matrix : Default (H.263)
Muxing mode : Packed bitstream
Codec ID : XVID
Codec ID/Hint : XviD
Duration : 1h 28mn
Bit rate : 1 216 Kbps
Width : 720 pixels
Height : 288 pixels
Display aspect ratio : 2.500
Frame rate : 23.976 fps
Color space : YUV
Chroma subsampling : 4:2:0
Bit depth : 8 bits
Scan type : Progressive
Compression mode : Lossy
Bits/(Pixel*Frame) : 0.245
Stream size : 766 MiB (90%)
Writing library : XviD 64

Audio
ID : 1
Format : MPEG Audio
Format version : Version 1
Format profile : Layer 3
Mode : Joint stereo
Mode extension : MS Stereo
Codec ID : 55
Codec ID/Hint : MP3
Duration : 1h 28mn
Bit rate mode : Constant
Bit rate : 128 Kbps
Channel(s) : 2 channels
Sampling rate : 44.1 KHz
Compression mode : Lossy
Stream size : 80.7 MiB (9%)
Alignment : Split accross interleaves
Interleave, duration : 42 ms (1.00 video frame)
Interleave, preload duration : 500 ms
Writing library : LAME3.99r


Plot:
As Johnny Blaze hides out in Eastern Europe, he is called upon to stop the devil, who is trying to take human form.

 
http://imgcrave.com/u/0qBFM.png 
http://imgcrave.com/u/e9Dyg.png 
http://imgcrave.com/u/Yt5Z.png 
http://imgcrave.com/u/CJUz0.png
